<?xml version="1.0"?>
<svg xmlns="http://www.w3.org/2000/svg" xmlns:xlink="http://www.w3.org/1999/xlink" xmlns:svgjs="http://svgjs.com/svgjs" version="1.1" width="512" height="512" x="0" y="0" viewBox="0 0 512 512" style="enable-background:new 0 0 512 512" xml:space="preserve"><g>
<g xmlns="http://www.w3.org/2000/svg">
	<g>
		<g>
			<path d="M138.5,253h-10c-11.046,0-20,8.954-20,20c0,11.046,8.954,20,20,20h10c11.046,0,20-8.954,20-20     C158.5,261.954,149.546,253,138.5,253z" fill="#ffffff" data-original="#000000" style=""/>
			<path d="M335.5,173h-127c-11.046,0-20,8.954-20,20s8.954,20,20,20h127c11.046,0,20-8.954,20-20S346.546,173,335.5,173z" fill="#ffffff" data-original="#000000" style=""/>
			<path d="M303.389,472H108.5c-22.056,0-40-17.944-40-40V80c0-22.056,17.944-40,40-40h245.889c22.056,0,40,17.944,40,40v113     c0,11.046,8.954,20,20,20c11.046,0,20-8.954,20-20V80c0-44.112-35.888-80-80-80H108.5c-44.112,0-80,35.888-80,80v352     c0,44.112,35.888,80,80,80h194.889c11.046,0,20-8.954,20-20C323.389,480.954,314.435,472,303.389,472z" fill="#ffffff" data-original="#000000" style=""/>
			<path d="M138.5,333h-10c-11.046,0-20,8.954-20,20c0,11.046,8.954,20,20,20h10c11.046,0,20-8.954,20-20     C158.5,341.954,149.546,333,138.5,333z" fill="#ffffff" data-original="#000000" style=""/>
			<path d="M335.5,93h-127c-11.046,0-20,8.954-20,20s8.954,20,20,20h127c11.046,0,20-8.954,20-20S346.546,93,335.5,93z" fill="#ffffff" data-original="#000000" style=""/>
			<path d="M427.135,359.954h-18.327c-8.963,0-16.255-7.422-16.255-16.545v-2.703c0-8.954,6.988-15.706,16.255-15.706h17.33     c5.094,0,10.362,3.41,10.362,9.116c0,11.046,8.954,20,20,20c11.046,0,20-8.954,20-20c0-23.969-17.7-43.97-41.02-48.255V273     c0-11.046-8.954-20-20-20c-11.046,0-20,8.954-20,20v13.548c-9.898,2.336-18.966,7.271-26.319,14.467     c-10.71,10.479-16.608,24.576-16.608,39.691v2.703c0,31.179,25.235,56.545,56.255,56.545h18.327     c9.023,0,16.365,7.31,16.365,16.295v9.5c0,8.694-7.035,15.251-16.365,15.251H397.35c-5.638,0-9.89-4.036-9.89-9.389     c0-11.046-8.954-20-20-20c-11.046,0-20,8.954-20,20c0,13.396,5.25,25.898,14.783,35.205c8.928,8.716,20.67,13.689,33.237,14.14     V492c0,11.046,8.954,20,20,20c11.046,0,20-8.954,20-20v-11.583c27.511-3.844,48.02-26.472,48.02-54.668v-9.5     C483.5,385.208,458.215,359.954,427.135,359.954z" fill="#ffffff" data-original="#000000" style=""/>
			<path d="M295.5,373c11.046,0,20-8.954,20-20c0-11.046-8.954-20-20-20h-87c-11.046,0-20,8.954-20,20c0,11.046,8.954,20,20,20     H295.5z" fill="#ffffff" data-original="#000000" style=""/>
			<path d="M138.5,173h-10c-11.046,0-20,8.954-20,20s8.954,20,20,20h10c11.046,0,20-8.954,20-20S149.546,173,138.5,173z" fill="#ffffff" data-original="#000000" style=""/>
			<path d="M355.5,273c0-11.046-8.954-20-20-20h-127c-11.046,0-20,8.954-20,20c0,11.046,8.954,20,20,20h127     C346.546,293,355.5,284.046,355.5,273z" fill="#ffffff" data-original="#000000" style=""/>
			<path d="M138.5,93h-10c-11.046,0-20,8.954-20,20s8.954,20,20,20h10c11.046,0,20-8.954,20-20S149.546,93,138.5,93z" fill="#ffffff" data-original="#000000" style=""/>
		</g>
	</g>
</g>
<g xmlns="http://www.w3.org/2000/svg">
</g>
<g xmlns="http://www.w3.org/2000/svg">
</g>
<g xmlns="http://www.w3.org/2000/svg">
</g>
<g xmlns="http://www.w3.org/2000/svg">
</g>
<g xmlns="http://www.w3.org/2000/svg">
</g>
<g xmlns="http://www.w3.org/2000/svg">
</g>
<g xmlns="http://www.w3.org/2000/svg">
</g>
<g xmlns="http://www.w3.org/2000/svg">
</g>
<g xmlns="http://www.w3.org/2000/svg">
</g>
<g xmlns="http://www.w3.org/2000/svg">
</g>
<g xmlns="http://www.w3.org/2000/svg">
</g>
<g xmlns="http://www.w3.org/2000/svg">
</g>
<g xmlns="http://www.w3.org/2000/svg">
</g>
<g xmlns="http://www.w3.org/2000/svg">
</g>
<g xmlns="http://www.w3.org/2000/svg">
</g>
</g></svg>
