<?xml version="1.0"?>
<svg xmlns="http://www.w3.org/2000/svg" xmlns:xlink="http://www.w3.org/1999/xlink" xmlns:svgjs="http://svgjs.com/svgjs" version="1.1" width="512" height="512" x="0" y="0" viewBox="0 0 512 512" style="enable-background:new 0 0 512 512" xml:space="preserve" class=""><g>
<g xmlns="http://www.w3.org/2000/svg">
	<g>
		<path d="M502.707,424.117c-6.919-9.984-16.532-16.355-27.378-18.415c4.995-13.29,10.981-34.351-6.215-51.545    c-8.332-8.333-17.571-11.213-26.395-11.41c20.268-78.363-36.339-122.466-40.509-213.182C398.422,47.143,337.789,0,256,0    c-81.758,0-142.421,47.115-146.21,129.564c-4.164,90.597-60.759,134.89-40.509,213.182c-8.824,0.197-18.063,3.078-26.395,11.409    c-17.197,17.195-11.21,38.256-6.214,51.546c-10.845,2.06-20.459,8.431-27.379,18.415c-10.123,14.608-12.19,34.016-5.143,48.296    c5.918,11.995,17.561,19.271,31.943,19.963c23.597,1.135,42.725,6.646,59.601,11.508c14.239,4.103,28.1,8.096,41.736,8.096    c12.548,0,24.906-3.382,37.193-13.171C196.73,507.248,225.716,512,256,512s59.27-4.752,81.377-13.192    c12.287,9.79,24.644,13.172,37.193,13.171c13.635,0,27.498-3.994,41.736-8.096c16.876-4.862,36.003-10.373,59.601-11.508    c14.382-0.692,26.024-7.968,31.943-19.963C514.897,458.132,512.83,438.724,502.707,424.117z M139.761,130.941    C142.827,64.162,190.993,30,256,30c64.809,0,113.162,33.923,116.24,100.941c4.445,96.705,59.071,139.018,41.184,205.323    c-8.527-15.866-27.243-25.576-45.487-24.945c-6.68-39.784-30.937-52.482-33.495-90.04c3.114-2.365,6.536-4.869,10.228-7.479    c19.175-13.558,15.861-42.439-4.839-51.767c15.806-39.763-6.333-88.01-42.868-88.01c-17.543,0-32.602,11.313-40.963,28.596    c-8.36-17.283-23.42-28.596-40.963-28.596c-36.813,0-58.562,48.527-42.868,88.009c-20.687,9.322-24.028,38.199-4.84,51.766    c3.693,2.611,7.115,5.115,10.229,7.48c-2.557,37.555-26.815,50.26-33.495,90.04c-18.24-0.631-36.958,9.076-45.487,24.945    C80.687,269.949,135.315,227.659,139.761,130.941z M256,180.235c23.798,0,48.52,3.435,71.336,9.077    C277.627,224.467,282.787,241,256,241c-26.771,0-21.622-16.534-71.336-51.687C207.272,183.721,232.093,180.235,256,180.235z     M197.055,134.583c0-17.491,9.494-30.56,17.982-30.56c8.488,0,17.981,13.069,17.981,30.56c0,6.058-1.103,11.833-3.166,16.813    c-8.982,0.785-19.734,2.232-27.889,3.648C198.829,149.433,197.055,142.221,197.055,134.583z M278.982,134.583    c0-17.491,9.493-30.56,17.981-30.56s17.982,13.069,17.982,30.56c0,7.639-1.774,14.851-4.908,20.461    c-8.125-1.409-18.825-2.856-27.889-3.648C280.084,146.416,278.982,140.641,278.982,134.583z M160.22,471.487    c-14.604,14.6-25.85,12.318-56.221,3.569c-17.54-5.053-39.369-11.342-66.466-12.646c-4.983-0.24-5.994-2.288-6.479-3.272    c-3.725-7.549,2.375-25.342,14.819-24.092c17.662,1.763,31-8.943,20.239-36.383c-9.28-23.673-4.587-31.42,21.281-21.279    c27.892,10.935,38.094-3.139,36.386-20.237c-1.258-12.591,17.561-19.347,25.265-14.082c0.934,0.797,1.938,2.346,2.101,5.743    C154.431,417.102,186.769,444.939,160.22,471.487z M330.887,347.364c-2.722,56.544-31.665,90.276-13.95,126.71    C299.687,479.175,278.42,482,256,482c-22.42,0-43.687-2.825-60.937-7.926c17.709-36.422-11.23-70.221-13.95-126.71    c-0.427-8.889-3.377-16.727-8.396-22.818c2.137-32.95,21.999-45.717,31.08-79.008C215.876,258.378,228.999,271,256,271    c27.001,0,40.124-12.622,52.203-25.462c9.061,33.215,28.946,46.107,31.08,79.008C334.264,330.637,331.314,338.475,330.887,347.364    z M480.945,459.138c-0.485,0.984-1.496,3.032-6.479,3.272c-27.097,1.304-48.925,7.593-66.466,12.646    c-30.371,8.749-41.618,11.032-56.222-3.572c-26.571-26.568,5.785-54.312,9.075-122.678c0.242-5.02,2.289-7.554,8.738-7.554    c8.494,0,19.618,5.991,18.628,15.893c-1.776,17.78,9.071,30.947,36.386,20.237c23.672-9.281,31.422-4.588,21.281,21.279    c-10.937,27.89,3.139,38.091,20.239,36.383C478.574,433.798,484.669,451.592,480.945,459.138z" fill="#ffffff" data-original="#000000" style="" class=""/>
	</g>
</g>
<g xmlns="http://www.w3.org/2000/svg">
</g>
<g xmlns="http://www.w3.org/2000/svg">
</g>
<g xmlns="http://www.w3.org/2000/svg">
</g>
<g xmlns="http://www.w3.org/2000/svg">
</g>
<g xmlns="http://www.w3.org/2000/svg">
</g>
<g xmlns="http://www.w3.org/2000/svg">
</g>
<g xmlns="http://www.w3.org/2000/svg">
</g>
<g xmlns="http://www.w3.org/2000/svg">
</g>
<g xmlns="http://www.w3.org/2000/svg">
</g>
<g xmlns="http://www.w3.org/2000/svg">
</g>
<g xmlns="http://www.w3.org/2000/svg">
</g>
<g xmlns="http://www.w3.org/2000/svg">
</g>
<g xmlns="http://www.w3.org/2000/svg">
</g>
<g xmlns="http://www.w3.org/2000/svg">
</g>
<g xmlns="http://www.w3.org/2000/svg">
</g>
</g></svg>
