<?xml version="1.0"?>
<svg xmlns="http://www.w3.org/2000/svg" xmlns:xlink="http://www.w3.org/1999/xlink" xmlns:svgjs="http://svgjs.com/svgjs" version="1.1" width="512" height="512" x="0" y="0" viewBox="0 0 512 512" style="enable-background:new 0 0 512 512" xml:space="preserve" class=""><g><path xmlns="http://www.w3.org/2000/svg" d="m512 76.896c0-19.829-7.722-38.47-21.742-52.489l-2.664-2.665c-14.02-14.02-32.662-21.742-52.491-21.742s-38.469 7.722-52.49 21.742l-51.609 51.608-10.757-10.757c-5.848-5.85-15.333-5.85-21.183 0l-44.037 44.036c-2.809 2.809-4.387 6.619-4.387 10.592 0 3.972 1.578 7.782 4.387 10.592l10.757 10.757-116.963 116.965c-39.298-6.06-80.873 5.992-111.08 36.199-50.322 50.322-50.322 132.202 0 182.524 25.162 25.161 58.212 37.742 91.262 37.742 33.051 0 66.101-12.58 91.262-37.742 30.208-30.208 42.268-71.787 36.207-111.086l116.958-116.958 10.757 10.757c2.809 2.809 6.619 4.387 10.592 4.387s7.783-1.578 10.592-4.387l44.036-44.036c5.85-5.85 5.85-15.333 0-21.183l-10.757-10.757 51.608-51.608c14.02-14.021 21.742-32.662 21.742-52.491zm-297.676 286.058c-2.821 2.821-6.572 4.375-10.562 4.375s-7.741-1.553-10.562-4.375c-2.809-2.809-6.619-4.387-10.592-4.387s-7.783 1.578-10.592 4.387l-29.737 29.737c-3.067 3.068-7.146 4.757-11.485 4.757s-8.417-1.69-11.485-4.757c-6.333-6.333-6.333-16.638 0-22.971l29.737-29.736c2.809-2.81 4.387-6.619 4.387-10.592 0-3.972-1.578-7.783-4.387-10.592-2.821-2.821-4.375-6.572-4.375-10.562s1.553-7.741 4.375-10.562l7.623-7.623h130.556zm-15.242 90.121c-38.642 38.64-101.516 38.641-140.158 0-38.641-38.642-38.641-101.516 0-140.158 17.459-17.459 39.867-27.002 62.75-28.684-8.284 13.087-9.151 29.553-2.587 43.342l-20.962 20.962c-18.014 18.014-18.014 47.324 0 65.337 8.726 8.727 20.328 13.532 32.668 13.532 12.341 0 23.943-4.806 32.668-13.532l20.947-20.947c5.966 2.854 12.543 4.359 19.353 4.359 8.639 0 16.9-2.436 24.017-6.962-1.679 22.884-11.236 45.291-28.696 62.751zm118.1-192.979h-130.556l100.343-100.343 10.801 10.801 54.477 54.477zm77.596-34.9-107.975-107.974 22.854-22.853 107.974 107.974zm74.296-116.992-51.608 51.608-65.278-65.278 51.609-51.608c8.362-8.362 19.48-12.968 31.307-12.968 11.826 0 22.945 4.605 31.306 12.967l2.664 2.665c8.362 8.363 12.968 19.481 12.968 31.307s-4.606 22.944-12.968 31.307z" fill="#ffffff" data-original="#000000" style="" class=""/></g></svg>
