<?xml version="1.0"?>
<svg xmlns="http://www.w3.org/2000/svg" xmlns:xlink="http://www.w3.org/1999/xlink" xmlns:svgjs="http://svgjs.com/svgjs" version="1.1" width="512" height="512" x="0" y="0" viewBox="0 0 510 510" style="enable-background:new 0 0 512 512" xml:space="preserve"><g><g xmlns="http://www.w3.org/2000/svg"><path d="m416 0h-322c-16.542 0-30 13.458-30 30v450c0 16.542 13.458 30 30 30h322c16.542 0 30-13.458 30-30v-450c0-16.542-13.458-30-30-30zm0 480h-322v-450h322c.019 459.847.1 450 0 450z" fill="#ffffff" data-original="#000000" style=""/><path d="m311 200c-41.07 0-74.19 35.101-70.736 76.895-.388 2.088-.264-6.619-.264 138.105 0 10.649 10.818 17.917 20.677 13.884l50.323-20.574 50.323 20.575c9.829 4.017 20.677-3.198 20.677-13.885v-144c0-39.149-31.851-71-71-71zm0 30c22.607 0 41 18.393 41 41s-18.393 41-41 41-41-18.393-41-41 18.393-41 41-41zm5.677 148.22c-3.639-1.487-7.715-1.487-11.354 0l-35.323 14.442v-63.751c24.578 17.452 57.397 17.47 82 0v63.751z" fill="#ffffff" data-original="#000000" style=""/><path d="m367 72h-224c-8.284 0-15 6.716-15 15s6.716 15 15 15h224c8.284 0 15-6.716 15-15s-6.716-15-15-15z" fill="#ffffff" data-original="#000000" style=""/><path d="m367 136h-224c-8.284 0-15 6.716-15 15s6.716 15 15 15h224c8.284 0 15-6.716 15-15s-6.716-15-15-15z" fill="#ffffff" data-original="#000000" style=""/><path d="m194.529 202h-55.059c-6.335 0-11.471 6.716-11.471 15s5.136 15 11.471 15h55.059c6.335 0 11.471-6.716 11.471-15s-5.136-15-11.471-15z" fill="#ffffff" data-original="#000000" style=""/><path d="m191 264h-48c-8.284 0-15 6.716-15 15s6.716 15 15 15h48c8.284 0 15-6.716 15-15s-6.716-15-15-15z" fill="#ffffff" data-original="#000000" style=""/><path d="m191 328h-48c-8.284 0-15 6.716-15 15s6.716 15 15 15h48c8.284 0 15-6.716 15-15s-6.716-15-15-15z" fill="#ffffff" data-original="#000000" style=""/><path d="m191 392h-48c-8.284 0-15 6.716-15 15s6.716 15 15 15h48c8.284 0 15-6.716 15-15s-6.716-15-15-15z" fill="#ffffff" data-original="#000000" style=""/></g></g></svg>
